<svg class="diagram-root" style="background: #f5f6f6" xmlns="http://www.w3.org/2000/svg" xmlns:xlink="http://www.w3.org/1999/xlink"><style>.diagram-root { font-family: "Helvetica Neue", sans-serif; font-size: 12px; } .t { overflow: visible; } .t-bg { y: 40; fill: #fff;   } .th { fill: #005aa0;   } .tht { fill: #fff; font-size: 14px;  } .tf { fill: #323c46; overflow: visible; } .tf.pk { fill: #005aa0; font-weight: bold; } .tf.fk { font-weight: bold; } .ty { fill: #adb1b5; font-weight: normal; text-anchor: end; } .r { fill: transparent; stroke: #c3c3c3; stroke-width: 1; } .l { stroke: 1; } .i { fill: #c2c7ce; stroke: #c2c7ce; } .i.ix { fill: #afb3b6; stroke: #000; } .fa { fill: transparent; overflow: visible; } .fa .bg.hover { fill: #f7f7f7; } .c { cy: 12; r: 4; stroke: #d2d2dc; fill: #d2d2dc; } .hr { fill: transparent; stroke: #323c46; stroke-opacity: 0.035; stroke-width: 13; } .dc { stroke: #fa5a3c; fill: #fa5a3c; } .x { stroke: white; stroke-width: 1; } .hl .th { fill: #1b9bff; } .hl .tht {  } .fhl .bg { fill: #e7f4ff; } .fhls .bg {  } .r.hl { stroke: #1b9bff; } .dim { opacity: 0.25; }</style><g class="drawing-wrapper" transform="translate(-26.55000000000001, -116.88999999999999) scale(1,1)"><g class="rs"><path d="M 373.28 203.89 m -1, 0 a 1,1 0 1,0 2,0 a 1,1 0 1,0 -2,0 M 373.28 203.89 m -0.5, 0 a 0.5,0.5 0 1,0 1,0 a 0.5,0.5 0 1,0 -1,0  M373.28 203.89 L373.28 203.89 385.28 203.89 M 373.28 209.89 m -1, 0 a 1,1 0 1,0 2,0 a 1,1 0 1,0 -2,0 M 373.28 209.89 m -0.5, 0 a 0.5,0.5 0 1,0 1,0 a 0.5,0.5 0 1,0 -1,0  M373.28 209.89 L373.28 209.89 380.28 203.89 373.28 197.89 M 373.28 197.89 m -1, 0 a 1,1 0 1,0 2,0 a 1,1 0 1,0 -2,0 M 373.28 197.89 m -0.5, 0 a 0.5,0.5 0 1,0 1,0 a 0.5,0.5 0 1,0 -1,0  M385.28 203.89 Q 455.55 203.89, 525.82 360.65 T 666.35 517.4 M 678.35 517.4 m -1, 0 a 1,1 0 1,0 2,0 a 1,1 0 1,0 -2,0 M 678.35 517.4 m -0.5, 0 a 0.5,0.5 0 1,0 1,0 a 0.5,0.5 0 1,0 -1,0  M678.35 517.4 L678.35 517.4 666.35 517.4 M672.35 523.4 L672.35 523.4 672.35 511.4" id="h1651051135" class="r"></path><path d="M 528.17 205.65 m -1, 0 a 1,1 0 1,0 2,0 a 1,1 0 1,0 -2,0 M 528.17 205.65 m -0.5, 0 a 0.5,0.5 0 1,0 1,0 a 0.5,0.5 0 1,0 -1,0  M528.17 205.65 L528.17 205.65 516.17 205.65 M 528.17 211.65 m -1, 0 a 1,1 0 1,0 2,0 a 1,1 0 1,0 -2,0 M 528.17 211.65 m -0.5, 0 a 0.5,0.5 0 1,0 1,0 a 0.5,0.5 0 1,0 -1,0  M528.17 211.65 L528.17 211.65 521.17 205.65 528.17 199.65 M 528.17 199.65 m -1, 0 a 1,1 0 1,0 2,0 a 1,1 0 1,0 -2,0 M 528.17 199.65 m -0.5, 0 a 0.5,0.5 0 1,0 1,0 a 0.5,0.5 0 1,0 -1,0  M516.17 205.65 Q 483.45 205.65, 450.73 204.77 T 385.28 203.89 M 373.28 203.89 m -1, 0 a 1,1 0 1,0 2,0 a 1,1 0 1,0 -2,0 M 373.28 203.89 m -0.5, 0 a 0.5,0.5 0 1,0 1,0 a 0.5,0.5 0 1,0 -1,0  M373.28 203.89 L373.28 203.89 385.28 203.89 M379.28 209.89 L379.28 209.89 379.28 197.89" id="h3936989733" class="r"></path><path d="M 528.17 230.65 m -1, 0 a 1,1 0 1,0 2,0 a 1,1 0 1,0 -2,0 M 528.17 230.65 m -0.5, 0 a 0.5,0.5 0 1,0 1,0 a 0.5,0.5 0 1,0 -1,0  M528.17 230.65 L528.17 230.65 516.17 230.65 M 528.17 236.65 m -1, 0 a 1,1 0 1,0 2,0 a 1,1 0 1,0 -2,0 M 528.17 236.65 m -0.5, 0 a 0.5,0.5 0 1,0 1,0 a 0.5,0.5 0 1,0 -1,0  M528.17 236.65 L528.17 236.65 521.17 230.65 528.17 224.65 M 528.17 224.65 m -1, 0 a 1,1 0 1,0 2,0 a 1,1 0 1,0 -2,0 M 528.17 224.65 m -0.5, 0 a 0.5,0.5 0 1,0 1,0 a 0.5,0.5 0 1,0 -1,0  M516.17 230.65 Q 444.39 230.65, 372.61 293.55 T 229.05 356.45 M 217.05 356.45 m -1, 0 a 1,1 0 1,0 2,0 a 1,1 0 1,0 -2,0 M 217.05 356.45 m -0.5, 0 a 0.5,0.5 0 1,0 1,0 a 0.5,0.5 0 1,0 -1,0  M217.05 356.45 L217.05 356.45 229.05 356.45 M223.05 362.45 L223.05 362.45 223.05 350.45" id="h3728003642" class="r"></path><path d="M 217.05 356.45 m -1, 0 a 1,1 0 1,0 2,0 a 1,1 0 1,0 -2,0 M 217.05 356.45 m -0.5, 0 a 0.5,0.5 0 1,0 1,0 a 0.5,0.5 0 1,0 -1,0  M217.05 356.45 L217.05 356.45 229.05 356.45 M 217.05 362.45 m -1, 0 a 1,1 0 1,0 2,0 a 1,1 0 1,0 -2,0 M 217.05 362.45 m -0.5, 0 a 0.5,0.5 0 1,0 1,0 a 0.5,0.5 0 1,0 -1,0  M217.05 362.45 L217.05 362.45 224.05 356.45 217.05 350.45 M 217.05 350.45 m -1, 0 a 1,1 0 1,0 2,0 a 1,1 0 1,0 -2,0 M 217.05 350.45 m -0.5, 0 a 0.5,0.5 0 1,0 1,0 a 0.5,0.5 0 1,0 -1,0  M229.05 356.45 Q 338.38 356.45, 447.7 424.42 T 666.35 492.4 M 678.35 492.4 m -1, 0 a 1,1 0 1,0 2,0 a 1,1 0 1,0 -2,0 M 678.35 492.4 m -0.5, 0 a 0.5,0.5 0 1,0 1,0 a 0.5,0.5 0 1,0 -1,0  M678.35 492.4 L678.35 492.4 666.35 492.4 M672.35 498.4 L672.35 498.4 672.35 486.4" id="h4064980733" class="r"></path><path d="M 217.05 381.45 m -1, 0 a 1,1 0 1,0 2,0 a 1,1 0 1,0 -2,0 M 217.05 381.45 m -0.5, 0 a 0.5,0.5 0 1,0 1,0 a 0.5,0.5 0 1,0 -1,0  M217.05 381.45 L217.05 381.45 229.05 381.45 M 217.05 387.45 m -1, 0 a 1,1 0 1,0 2,0 a 1,1 0 1,0 -2,0 M 217.05 387.45 m -0.5, 0 a 0.5,0.5 0 1,0 1,0 a 0.5,0.5 0 1,0 -1,0  M217.05 387.45 L217.05 387.45 224.05 381.45 217.05 375.45 M 217.05 375.45 m -1, 0 a 1,1 0 1,0 2,0 a 1,1 0 1,0 -2,0 M 217.05 375.45 m -0.5, 0 a 0.5,0.5 0 1,0 1,0 a 0.5,0.5 0 1,0 -1,0  M229.05 381.45 Q 274.43 381.45, 319.81 510.43 T 410.56 639.42 M 422.56 639.42 m -1, 0 a 1,1 0 1,0 2,0 a 1,1 0 1,0 -2,0 M 422.56 639.42 m -0.5, 0 a 0.5,0.5 0 1,0 1,0 a 0.5,0.5 0 1,0 -1,0  M422.56 639.42 L422.56 639.42 410.56 639.42 M416.56 645.42 L416.56 645.42 416.56 633.42" id="h1376273841" class="r"></path><path d="M 835 355.56 m -1, 0 a 1,1 0 1,0 2,0 a 1,1 0 1,0 -2,0 M 835 355.56 m -0.5, 0 a 0.5,0.5 0 1,0 1,0 a 0.5,0.5 0 1,0 -1,0  M835 355.56 L835 355.56 823 355.56 M 835 361.56 m -1, 0 a 1,1 0 1,0 2,0 a 1,1 0 1,0 -2,0 M 835 361.56 m -0.5, 0 a 0.5,0.5 0 1,0 1,0 a 0.5,0.5 0 1,0 -1,0  M835 361.56 L835 361.56 828 355.56 835 349.56 M 835 349.56 m -1, 0 a 1,1 0 1,0 2,0 a 1,1 0 1,0 -2,0 M 835 349.56 m -0.5, 0 a 0.5,0.5 0 1,0 1,0 a 0.5,0.5 0 1,0 -1,0  M823 355.56 Q 674.52 355.56, 526.03 356.01 T 229.05 356.45 M 217.05 356.45 m -1, 0 a 1,1 0 1,0 2,0 a 1,1 0 1,0 -2,0 M 217.05 356.45 m -0.5, 0 a 0.5,0.5 0 1,0 1,0 a 0.5,0.5 0 1,0 -1,0  M217.05 356.45 L217.05 356.45 229.05 356.45 M223.05 362.45 L223.05 362.45 223.05 350.45" id="h1950279624" class="r"></path></g><g class="hrs"></g><g class="ts"><svg width="167.17" height="100" x="206.11" y="146.89" id="h3708248841" class="t"><rect height="40" width="167.17" class="th"></rect><text x="13" y="25" class="tht">Departments</text><rect height="60" width="167.17" class="t-bg"></rect><text x="13" y="61" class="tf pk">dept_no<tspan x="154.17" class="ty">VARCHAR</tspan></text><path d="M7,14A2,2 0 0,1 5,12A2,2 0 0,1 7,10A2,2 0 0,1 9,12A2,2 0 0,1 7,14M12.65,10C11.83,7.67 9.61,6 7, 6A6, 6 0 0, 0 1, 12A6, 6 0 0, 0 7, 18C9.61, 18 11.83, 16.33 12.65, 14H17V18H21V14H23V10H12.65Z" class="i pk" transform="translate(76.37898437499999, 48) scale(0.65)"></path><text x="13" y="86" class="tf">dept_name<tspan x="154.17" class="ty">string</tspan></text></svg><svg width="147.17" height="100" x="678.35" y="435.4" id="h1090417462" class="t"><rect height="40" width="147.17" class="th"></rect><text x="13" y="25" class="tht">dept_emp</text><rect height="60" width="147.17" class="t-bg"></rect><text x="13" y="61" class="tf fk">emp_no<tspan x="134.17" class="ty">INT</tspan></text><text x="13" y="86" class="tf fk">dept_no<tspan x="134.17" class="ty">VARCHAR</tspan></text></svg><svg width="147.17" height="100" x="528.17" y="148.65" id="h1676682957" class="t"><rect height="40" width="147.17" class="th"></rect><text x="13" y="25" class="tht">dept_manager</text><rect height="60" width="147.17" class="t-bg"></rect><text x="13" y="61" class="tf fk">dept_no<tspan x="134.17" class="ty">VARCHAR</tspan></text><text x="13" y="86" class="tf fk">emp_no<tspan x="134.17" class="ty">INT</tspan></text></svg><svg width="168.5" height="225" x="48.55" y="299.45" id="h2075019312" class="t"><rect height="40" width="168.5" class="th"></rect><text x="13" y="25" class="tht">employee</text><rect height="185" width="168.5" class="t-bg"></rect><text x="13" y="61" class="tf pk">emp_no<tspan x="155.5" class="ty">INT</tspan></text><path d="M7,14A2,2 0 0,1 5,12A2,2 0 0,1 7,10A2,2 0 0,1 9,12A2,2 0 0,1 7,14M12.65,10C11.83,7.67 9.61,6 7, 6A6, 6 0 0, 0 1, 12A6, 6 0 0, 0 7, 18C9.61, 18 11.83, 16.33 12.65, 14H17V18H21V14H23V10H12.65Z" class="i pk" transform="translate(116.169921875, 48) scale(0.65)"></path><text x="13" y="86" class="tf fk">emp_title_id<tspan x="155.5" class="ty">VARCHAR</tspan></text><text x="13" y="111" class="tf">birth_date<tspan x="155.5" class="ty">DATE</tspan></text><text x="13" y="136" class="tf">first_name<tspan x="155.5" class="ty">string</tspan></text><text x="13" y="161" class="tf">last_name<tspan x="155.5" class="ty">string</tspan></text><text x="13" y="186" class="tf">sex<tspan x="155.5" class="ty">string</tspan></text><text x="13" y="211" class="tf">hire_date<tspan x="155.5" class="ty">date</tspan></text></svg><svg width="128.7" height="100" x="835" y="298.56" id="h2472833127" class="t"><rect height="40" width="128.7" class="th"></rect><text x="13" y="25" class="tht">salaries</text><rect height="60" width="128.7" class="t-bg"></rect><text x="13" y="61" class="tf pk">emp_no<tspan x="115.69999999999999" class="ty">INT</tspan></text><path d="M7,14A2,2 0 0,1 5,12A2,2 0 0,1 7,10A2,2 0 0,1 9,12A2,2 0 0,1 7,14M12.65,10C11.83,7.67 9.61,6 7, 6A6, 6 0 0, 0 1, 12A6, 6 0 0, 0 7, 18C9.61, 18 11.83, 16.33 12.65, 14H17V18H21V14H23V10H12.65Z" class="i pk" transform="translate(76.36992187499999, 48) scale(0.65)"></path><text x="13" y="86" class="tf">salary<tspan x="115.69999999999999" class="ty">INT</tspan></text></svg><svg width="138.48" height="100" x="422.56" y="582.42" id="h1006881043" class="t"><rect height="40" width="138.48" class="th"></rect><text x="13" y="25" class="tht">title</text><rect height="60" width="138.48" class="t-bg"></rect><text x="13" y="61" class="tf fk">title_id<tspan x="125.47999999999999" class="ty">VARCHAR</tspan></text><text x="13" y="86" class="tf">title<tspan x="125.47999999999999" class="ty">VARCHAR</tspan></text></svg></g></g><text class="qdbd-link" x="10" y="20">www.quickdatabasediagrams.com</text></svg>